<?xml version="1.0" encoding="utf-8"?>
<!-- Generator: Adobe Illustrator 21.1.0, SVG Export Plug-In . SVG Version: 6.00 Build 0)  -->
<svg version="1.1" id="Calque_1" xmlns="http://www.w3.org/2000/svg" xmlns:xlink="http://www.w3.org/1999/xlink" x="0px" y="0px"
	 viewBox="0 0 100 100" style="enable-background:new 0 0 100 100;" xml:space="preserve">
<style type="text/css">
	.st0{display:none;fill:#83ABD7;}
	.st1{fill:none;stroke:#FFFFFF;stroke-width:3.9084;stroke-miterlimit:10;}
	.st2{fill:#FFFFFF;}
</style>
<rect class="st0" width="100" height="100"/>
<polyline class="st1" points="35.2,4 15.2,4 15.2,96.5 84.3,96.5 84.3,86.6 "/>
<polyline class="st1" points="84.3,86.6 84.3,4 35.2,4 "/>
<path class="st2" d="M18.5,13h-7C10.1,13,9,11.9,9,10.5v0C9,9.1,10.1,8,11.5,8h7c1.4,0,2.5,1.1,2.5,2.5v0C21,11.9,19.9,13,18.5,13z"
	/>
<path class="st2" d="M18.5,21h-7C10.1,21,9,19.9,9,18.5v0c0-1.4,1.1-2.5,2.5-2.5h7c1.4,0,2.5,1.1,2.5,2.5v0C21,19.9,19.9,21,18.5,21
	z"/>
<path class="st2" d="M18.5,29h-7C10.1,29,9,27.9,9,26.5v0c0-1.4,1.1-2.5,2.5-2.5h7c1.4,0,2.5,1.1,2.5,2.5v0C21,27.9,19.9,29,18.5,29
	z"/>
<path class="st2" d="M18.5,37h-7C10.1,37,9,35.9,9,34.5v0c0-1.4,1.1-2.5,2.5-2.5h7c1.4,0,2.5,1.1,2.5,2.5v0C21,35.9,19.9,37,18.5,37
	z"/>
<path class="st2" d="M18.5,45h-7C10.1,45,9,43.9,9,42.5v0c0-1.4,1.1-2.5,2.5-2.5h7c1.4,0,2.5,1.1,2.5,2.5v0C21,43.9,19.9,45,18.5,45
	z"/>
<path class="st2" d="M18.5,53h-7C10.1,53,9,51.9,9,50.5v0c0-1.4,1.1-2.5,2.5-2.5h7c1.4,0,2.5,1.1,2.5,2.5v0C21,51.9,19.9,53,18.5,53
	z"/>
<path class="st2" d="M18.5,61h-7C10.1,61,9,59.9,9,58.5v0c0-1.4,1.1-2.5,2.5-2.5h7c1.4,0,2.5,1.1,2.5,2.5v0C21,59.9,19.9,61,18.5,61
	z"/>
<path class="st2" d="M18.5,69h-7C10.1,69,9,67.9,9,66.5l0,0c0-1.4,1.1-2.5,2.5-2.5h7c1.4,0,2.5,1.1,2.5,2.5l0,0
	C21,67.9,19.9,69,18.5,69z"/>
<path class="st2" d="M18.5,77h-7C10.1,77,9,75.9,9,74.5l0,0c0-1.4,1.1-2.5,2.5-2.5h7c1.4,0,2.5,1.1,2.5,2.5l0,0
	C21,75.9,19.9,77,18.5,77z"/>
<path class="st2" d="M18.5,85h-7C10.1,85,9,83.9,9,82.5l0,0c0-1.4,1.1-2.5,2.5-2.5h7c1.4,0,2.5,1.1,2.5,2.5l0,0
	C21,83.9,19.9,85,18.5,85z"/>
<path class="st2" d="M18.5,93h-7C10.1,93,9,91.9,9,90.5l0,0c0-1.4,1.1-2.5,2.5-2.5h7c1.4,0,2.5,1.1,2.5,2.5l0,0
	C21,91.9,19.9,93,18.5,93z"/>
</svg>
